<svg width="24" height="25" viewBox="0 0 24 25" fill="none" xmlns="http://www.w3.org/2000/svg">
<path d="M16 4.64844C16.5523 4.64844 17 4.20072 17 3.64844C17 3.09615 16.5523 2.64844 16 2.64844V4.64844ZM4 3.64844V2.64844C3.44772 2.64844 3 3.09615 3 3.64844H4ZM3 16.6484V17.6484H5V16.6484H3ZM16 2.64844H4V4.64844H16V2.64844ZM3 3.64844V16.6484H5V3.64844H3Z" fill="#B6B6B6"/>
<path d="M8 7.64844H20V19.6484C20 20.753 19.1046 21.6484 18 21.6484H10C8.89543 21.6484 8 20.753 8 19.6484V7.64844Z" stroke="#B6B6B6" stroke-width="2" stroke-linecap="round"/>
</svg>
