<svg width="19" height="19" viewBox="0 0 19 19" fill="none" xmlns="http://www.w3.org/2000/svg">
<path fill-rule="evenodd" clip-rule="evenodd" d="M10.4824 4.67627C10.4824 4.40013 10.2586 4.17627 9.98242 4.17627C9.70628 4.17627 9.48242 4.40013 9.48242 4.67627V9.17627H4.98242C4.70628 9.17627 4.48242 9.40013 4.48242 9.67627C4.48242 9.95241 4.70628 10.1763 4.98242 10.1763H9.48242V14.6763C9.48242 14.9524 9.70628 15.1763 9.98242 15.1763C10.2586 15.1763 10.4824 14.9524 10.4824 14.6763V10.1763H14.9824C15.2586 10.1763 15.4824 9.95241 15.4824 9.67627C15.4824 9.40013 15.2586 9.17627 14.9824 9.17627H10.4824V4.67627Z" fill="#F6F6F6"/>
</svg>
