<svg width="24" height="24" viewBox="0 0 24 24" fill="none" xmlns="http://www.w3.org/2000/svg">
<path d="M10.5787 5.90273H5.87964C5.38113 5.90273 4.90303 6.10077 4.55053 6.45327C4.19803 6.80577 4 7.28386 4 7.78237V18.1204C4 18.6189 4.19803 19.097 4.55053 19.4495C4.90303 19.802 5.38113 20 5.87964 20H16.2176C16.7161 20 17.1942 19.802 17.5467 19.4495C17.8992 19.097 18.0973 18.6189 18.0973 18.1204V13.4213M16.7684 4.57383C16.9418 4.39431 17.1492 4.25111 17.3785 4.1526C17.6078 4.05409 17.8545 4.00224 18.104 4.00007C18.3536 3.9979 18.6011 4.04546 18.8321 4.13997C19.0631 4.23448 19.273 4.37405 19.4495 4.55053C19.6259 4.72702 19.7655 4.93688 19.86 5.16788C19.9545 5.39888 20.0021 5.64639 19.9999 5.89597C19.9978 6.14555 19.9459 6.39219 19.8474 6.62151C19.7489 6.85084 19.6057 7.05824 19.4262 7.23164L11.3569 15.3009H8.69909V12.6431L16.7684 4.57383Z" stroke="#6A7BFF" stroke-width="2" stroke-linecap="square" stroke-linejoin="round"/>
</svg>
