<svg width="24" height="24" viewBox="0 0 24 24" fill="none" xmlns="http://www.w3.org/2000/svg">
<g clip-path="url(#clip0_795_17794)">
<path d="M5 19V10C5 6.68629 7.68629 4 11 4V4C14.3137 4 17 6.68629 17 10V19M5 19H17M5 19H3M17 19H19" stroke="#979797" stroke-width="2" stroke-linecap="square" stroke-linejoin="round"/>
<path d="M10 22L12 22" stroke="#979797" stroke-width="2" stroke-linecap="round" stroke-linejoin="round"/>
<circle cx="11" cy="3" r="1" stroke="#979797" stroke-width="2"/>
</g>
<path d="M21.5001 17C21.5001 19.7702 19.5649 21.5 17.7779 21.5C15.9908 21.5 14.0557 19.7702 14.0557 17C14.0557 14.2298 15.9908 12.5 17.7779 12.5C19.5649 12.5 21.5001 14.2298 21.5001 17Z" fill="white" stroke="white" stroke-width="5"/>
<path d="M17.052 19.6833L20.7076 15.5708L19.9817 14.7542L17.052 18.05L15.5743 16.3875L14.8483 17.2042L17.052 19.6833ZM17.778 22.8333C17.0607 22.8333 16.3866 22.6801 15.7557 22.3737C15.1249 22.0676 14.5761 21.6521 14.1094 21.1271C13.6428 20.6021 13.2734 19.9847 13.0014 19.275C12.729 18.5653 12.5928 17.8069 12.5928 17C12.5928 16.1931 12.729 15.4347 13.0014 14.725C13.2734 14.0153 13.6428 13.3979 14.1094 12.8729C14.5761 12.3479 15.1249 11.9322 15.7557 11.6258C16.3866 11.3197 17.0607 11.1667 17.778 11.1667C18.4952 11.1667 19.1693 11.3197 19.8002 11.6258C20.431 11.9322 20.9798 12.3479 21.4465 12.8729C21.9131 13.3979 22.2825 14.0153 22.5546 14.725C22.8269 15.4347 22.9631 16.1931 22.9631 17C22.9631 17.8069 22.8269 18.5653 22.5546 19.275C22.2825 19.9847 21.9131 20.6021 21.4465 21.1271C20.9798 21.6521 20.431 22.0676 19.8002 22.3737C19.1693 22.6801 18.4952 22.8333 17.778 22.8333Z" fill="#ED7C55"/>
<defs>
<clipPath id="clip0_795_17794">
<rect width="21.3333" height="24" fill="white"/>
</clipPath>
</defs>
</svg>
