<svg width="24" height="24" viewBox="0 0 24 24" fill="none" xmlns="http://www.w3.org/2000/svg">
<g clip-path="url(#clip0_1675_27350)">
<path d="M15 3C10.0299 3 6 7.02991 6 12C6 16.9701 10.0299 21 15 21C19.9701 21 24 16.9701 24 12C24 7.02991 19.9701 3 15 3ZM15 19.4732C10.8737 19.4732 7.52679 16.1263 7.52679 12C7.52679 7.87366 10.8737 4.52679 15 4.52679C19.1263 4.52679 22.4732 7.87366 22.4732 12C22.4732 16.1263 19.1263 19.4732 15 19.4732Z" fill="#979797"/>
<path d="M14.0354 8.46429C14.0354 8.72003 14.137 8.9653 14.3178 9.14614C14.4987 9.32698 14.7439 9.42857 14.9997 9.42857C15.2554 9.42857 15.5007 9.32698 15.6815 9.14614C15.8624 8.9653 15.964 8.72003 15.964 8.46429C15.964 8.20854 15.8624 7.96327 15.6815 7.78243C15.5007 7.60159 15.2554 7.5 14.9997 7.5C14.7439 7.5 14.4987 7.60159 14.3178 7.78243C14.137 7.96327 14.0354 8.20854 14.0354 8.46429ZM15.4818 10.7143H14.5175C14.4292 10.7143 14.3568 10.7866 14.3568 10.875V16.3393C14.3568 16.4277 14.4292 16.5 14.5175 16.5H15.4818C15.5702 16.5 15.6425 16.4277 15.6425 16.3393V10.875C15.6425 10.7866 15.5702 10.7143 15.4818 10.7143Z" fill="#979797"/>
</g>
<defs>
<clipPath id="clip0_1675_27350">
<rect width="18" height="18" fill="white" transform="translate(6 3)"/>
</clipPath>
</defs>
</svg>
