<svg width="18" height="18" viewBox="0 0 18 18" fill="none" xmlns="http://www.w3.org/2000/svg">
<g clip-path="url(#clip0_1557_24563)">
<path d="M9 0C4.02991 0 0 4.02991 0 9C0 13.9701 4.02991 18 9 18C13.9701 18 18 13.9701 18 9C18 4.02991 13.9701 0 9 0ZM9 16.4732C4.87366 16.4732 1.52679 13.1263 1.52679 9C1.52679 4.87366 4.87366 1.52679 9 1.52679C13.1263 1.52679 16.4732 4.87366 16.4732 9C16.4732 13.1263 13.1263 16.4732 9 16.4732Z" fill="#979797"/>
<path d="M8.0354 5.46429C8.0354 5.72003 8.13699 5.9653 8.31783 6.14614C8.49867 6.32698 8.74394 6.42857 8.99969 6.42857C9.25543 6.42857 9.5007 6.32698 9.68154 6.14614C9.86238 5.9653 9.96397 5.72003 9.96397 5.46429C9.96397 5.20854 9.86238 4.96327 9.68154 4.78243C9.5007 4.60159 9.25543 4.5 8.99969 4.5C8.74394 4.5 8.49867 4.60159 8.31783 4.78243C8.13699 4.96327 8.0354 5.20854 8.0354 5.46429ZM9.48183 7.71429H8.51754C8.42915 7.71429 8.35683 7.78661 8.35683 7.875V13.3393C8.35683 13.4277 8.42915 13.5 8.51754 13.5H9.48183C9.57022 13.5 9.64254 13.4277 9.64254 13.3393V7.875C9.64254 7.78661 9.57022 7.71429 9.48183 7.71429Z" fill="#979797"/>
</g>
<defs>
<clipPath id="clip0_1557_24563">
<rect width="18" height="18" fill="white"/>
</clipPath>
</defs>
</svg>
