<svg width="18" height="18" viewBox="0 0 18 18" fill="none" xmlns="http://www.w3.org/2000/svg">
<path fill-rule="evenodd" clip-rule="evenodd" d="M14.25 3.95038V6.74775V7.88613H14.1284H13.1125H12.9392H10.3142V6.74775H12.4143C11.6828 5.63125 10.4332 4.88838 9 4.88838C6.732 4.88838 4.8875 6.73287 4.8875 9C4.8875 11.268 6.732 13.1134 9 13.1134C11.2601 13.1134 13.0976 11.2803 13.1099 9.02275H14.2491C14.236 11.9111 11.8901 14.25 9 14.25C6.102 14.25 3.75 11.8989 3.75 9C3.75 6.10287 6.102 3.75 9 3.75C10.6739 3.75 12.1517 4.54538 13.1125 5.76688V3.95038H14.25Z" fill="#545454"/>
</svg>
