<svg width="20" height="20" viewBox="0 0 20 20" fill="none" xmlns="http://www.w3.org/2000/svg">
<path fill-rule="evenodd" clip-rule="evenodd" d="M15.8332 4.38963V7.49783V8.76269H15.698H14.5693H14.3768H11.4601V7.49783H13.7934C12.9807 6.25727 11.5923 5.43185 9.99984 5.43185C7.47984 5.43185 5.43039 7.4813 5.43039 10.0003C5.43039 12.5203 7.47984 14.5707 9.99984 14.5707C12.5111 14.5707 14.5528 12.5339 14.5664 10.0256H15.8322C15.8176 13.2349 13.2111 15.8337 9.99984 15.8337C6.77984 15.8337 4.1665 13.2213 4.1665 10.0003C4.1665 6.7813 6.77984 4.16699 9.99984 4.16699C11.8597 4.16699 13.5018 5.05074 14.5693 6.40796V4.38963H15.8332Z" fill="#979797"/>
</svg>
