<svg width="15" height="16" viewBox="0 0 15 16" fill="none" xmlns="http://www.w3.org/2000/svg">
<path fill-rule="evenodd" clip-rule="evenodd" d="M9.68891 9.48513L12.8325 6.35105C13.2852 5.89969 13.5115 5.67401 13.6308 5.38703C13.75 5.10005 13.75 4.7809 13.75 4.1426V3.83766C13.75 2.85611 13.75 2.36534 13.4442 2.06042C13.1383 1.75549 12.6461 1.75549 11.6616 1.75549H11.3557C10.7155 1.75549 10.3953 1.75549 10.1075 1.87436C9.81964 1.99324 9.59328 2.21891 9.14057 2.67027L5.99701 5.80435C5.46802 6.33176 5.14 6.65878 5.01299 6.97463C4.97285 7.07443 4.95279 7.17312 4.95279 7.27666C4.95279 7.70789 5.30086 8.05492 5.99701 8.74897L6.09058 8.84225L7.18658 7.72991C7.34289 7.57128 7.59819 7.56939 7.75683 7.72569C7.91546 7.88199 7.91735 8.1373 7.76105 8.29593L6.6617 9.41166L6.73539 9.48513C7.43155 10.1792 7.77962 10.5262 8.21215 10.5262C8.30772 10.5262 8.39917 10.5093 8.49116 10.4754C8.81549 10.3559 9.14658 10.0258 9.68891 9.48513ZM11.1657 5.80458C10.7579 6.21115 10.0968 6.21115 9.68898 5.80458C9.28118 5.39801 9.28118 4.73884 9.68898 4.33227C10.0968 3.9257 10.7579 3.9257 11.1657 4.33227C11.5735 4.73884 11.5735 5.39801 11.1657 5.80458Z" fill="#2C3F80"/>
<path fill-rule="evenodd" clip-rule="evenodd" d="M1.7338 8.30636C1.91896 8.49173 1.91877 8.7921 1.7334 8.97725L1.63612 9.07441C1.55302 9.1574 1.55302 9.29172 1.63612 9.37471C1.71953 9.45803 1.85501 9.45803 1.93842 9.37471L3.0085 8.30595C3.19387 8.1208 3.49425 8.12098 3.6794 8.30636C3.86455 8.49173 3.86437 8.7921 3.67899 8.97725L2.60891 10.046C2.15507 10.4993 1.41947 10.4993 0.965625 10.046C0.511458 9.59241 0.511458 8.85672 0.965625 8.40311L1.0629 8.30595C1.24828 8.1208 1.54865 8.12098 1.7338 8.30636ZM4.56075 10.9405C4.74394 11.1278 4.74059 11.4281 4.55328 11.6113L3.47192 12.6689C3.28461 12.8521 2.98426 12.8487 2.80107 12.6614C2.61788 12.4741 2.62122 12.1737 2.80853 11.9905L3.88989 10.933C4.0772 10.7498 4.37756 10.7532 4.56075 10.9405ZM7.1757 11.8293C7.36085 12.0146 7.36067 12.315 7.17529 12.5002L6.10522 13.5689C6.02212 13.6519 6.02212 13.7862 6.10522 13.8692C6.18863 13.9525 6.32411 13.9525 6.40752 13.8692L6.5048 13.7721C6.69018 13.5869 6.99055 13.5871 7.1757 13.7725C7.36085 13.9578 7.36067 14.2582 7.17529 14.4434L7.07801 14.5405C6.62416 14.9938 5.88857 14.9938 5.43472 14.5405C4.98056 14.0869 4.98056 13.3512 5.43472 12.8976L6.5048 11.8289C6.69018 11.6437 6.99055 11.6439 7.1757 11.8293Z" fill="#2C3F80"/>
<g opacity="0.5">
<path d="M6.7791 3.88628L5.41178 5.24947C5.16046 5.50003 4.92991 5.72988 4.74784 5.93765C4.63092 6.07108 4.51408 6.21712 4.41511 6.37849L4.40178 6.36521C4.3765 6.34 4.36384 6.32737 4.35114 6.31505C4.11348 6.08446 3.83393 5.90112 3.52744 5.77485C3.51107 5.7681 3.49444 5.76152 3.4612 5.74834L3.25762 5.66768C2.98183 5.5584 2.90832 5.20336 3.11818 4.99414C3.72046 4.3937 4.44358 3.67277 4.79256 3.52798C5.10033 3.40028 5.4328 3.35779 5.75346 3.40518C6.04726 3.4486 6.3252 3.59951 6.7791 3.88628Z" fill="#2C3F80"/>
<path d="M9.11378 11.0638C9.22397 11.1757 9.29715 11.2547 9.36329 11.3391C9.45058 11.4504 9.52863 11.5687 9.59665 11.6928C9.67324 11.8324 9.73269 11.9815 9.8516 12.2798C9.9484 12.5226 10.27 12.5868 10.4568 12.4006L10.5019 12.3555C11.1042 11.7551 11.8273 11.0341 11.9725 10.6862C12.1006 10.3794 12.1432 10.0479 12.0957 9.7282C12.0522 9.43532 11.9008 9.15825 11.6133 8.70583L10.2414 10.0736C9.98436 10.3298 9.7487 10.5648 9.53555 10.7489C9.40783 10.8592 9.26808 10.9694 9.11378 11.0638Z" fill="#2C3F80"/>
</g>
<g opacity="0.5">
<path d="M4.80419 9.60757C4.98945 9.42231 4.98945 9.12194 4.80419 8.93668C4.61892 8.75141 4.31855 8.75141 4.13329 8.93668L2.79428 10.2757C2.60902 10.4609 2.60902 10.7613 2.79428 10.9466C2.97955 11.1318 3.27992 11.1318 3.46518 10.9466L4.80419 9.60757Z" fill="#2C3F80"/>
<path d="M6.55991 11.3611C6.74517 11.1759 6.74517 10.8755 6.55991 10.6902C6.37464 10.505 6.07427 10.505 5.88901 10.6902L4.55916 12.0201C4.37389 12.2053 4.37389 12.5057 4.55916 12.691C4.74442 12.8762 5.04479 12.8762 5.23006 12.691L6.55991 11.3611Z" fill="#2C3F80"/>
</g>
</svg>
