<svg width="24" height="24" viewBox="0 0 24 24" fill="none" xmlns="http://www.w3.org/2000/svg">
<path d="M17.1768 19.5562L6.66394 12.1765L17.1768 5.78074" stroke="#979797" stroke-width="1.7"/>
<path d="M14.2043 19.0642C14.2043 17.3364 15.5585 15.9783 17.1772 15.9783C18.7958 15.9783 20.15 17.3364 20.15 19.0642C20.15 20.7919 18.7958 22.15 17.1772 22.15C15.5585 22.15 14.2043 20.7919 14.2043 19.0642Z" fill="white" stroke="#979797" stroke-width="1.7"/>
<path d="M3.69064 12.1765C3.69064 10.4487 5.0448 9.09064 6.66349 9.09064C8.28217 9.09064 9.63633 10.4487 9.63633 12.1765C9.63633 13.9042 8.28217 15.2623 6.66348 15.2623C5.0448 15.2623 3.69064 13.9042 3.69064 12.1765Z" fill="white" stroke="#979797" stroke-width="1.7"/>
<path d="M14.2043 6.27266C14.2043 4.5449 15.5585 3.18683 17.1772 3.18683C18.7958 3.18683 20.15 4.5449 20.15 6.27266C20.15 8.00043 18.7958 9.3585 17.1772 9.3585C15.5585 9.3585 14.2043 8.00043 14.2043 6.27266Z" fill="white" stroke="#979797" stroke-width="1.7"/>
</svg>
